<svg xmlns="http://www.w3.org/2000/svg" viewBox="0 0 144.41 122.62"><defs><style>.cls-1,.cls-3{fill:#fff;}.cls-1,.cls-2{stroke:#231f20;stroke-miterlimit:10;stroke-width:2px;}.cls-2{fill:none;}.cls-4{fill:#231f20;}</style></defs><g id="Layer_2" data-name="Layer 2"><g id="Layer_1-2" data-name="Layer 1"><path class="cls-1" d="M143.11,70.76c-1.13-.87-4.31-4.39-4.57-6.26-5.06-35.74-30.5.45-32.73-4.14-21.38-44-26.22-25.27-38.89-50.12-4.53-8.89-5.07-2.09-5,9.47.14,27.05,23.33,43.22,27,45.48a0,0,0,0,1,0,.08c-2.66-.57-21.39-4.95-35.18-18.08C41.19,35.33,48.59,60.73,37.5,75.61l.06-.09c-4,5.5-10,9.16-16,11.64a6.15,6.15,0,0,1-.84.34l-.71.27-.09,0C9,91.92-1.19,92.36,1.41,92.93c27.61,1.34,3.43,47.12,20,20.26,23-37.27,54.85-1.69,85.73-5.26,0,0,27.46-3.05,25.53-29.27,0-.62-1-5,1.53-6.64C137.06,70.17,145.05,72.7,143.11,70.76Z"/><path class="cls-2" d="M62.64,7.5c-1.79,2.83-4.25,9.18-7.51,11.45-8.35,5.83-27.37,5-48.51-8-12.9-7.92,30.71,16.29,26.7,54.42-.29,2.76-1,9.32-2,12C28,86.22,18.1,88.35,18.1,88.35"/><path class="cls-3" d="M13.72,76.33"/><path class="cls-4" d="M13.72,81.33a5,5,0,1,0-5-5,5.09,5.09,0,0,0,5,5Z"/><path class="cls-3" d="M128.37,60.3"/><path class="cls-4" d="M128.37,62.8c3.22,0,3.23-5,0-5s-3.22,5,0,5Z"/><path class="cls-3" d="M38,7.5"/><path class="cls-4" d="M38,15c3.93,0,7.68-3.45,7.5-7.5A7.63,7.63,0,0,0,38,0c-3.92,0-7.68,3.45-7.5,7.5A7.64,7.64,0,0,0,38,15Z"/></g></g></svg>