<svg xmlns="http://www.w3.org/2000/svg" viewBox="0 0 105.17 80.29"><defs><style>.cls-1{fill:#fff;stroke:#231f20;stroke-miterlimit:10;}.cls-2{fill:#231f20;}</style></defs><g id="Layer_2" data-name="Layer 2"><g id="Layer_1-2" data-name="Layer 1"><ellipse class="cls-1" cx="91.28" cy="42.19" rx="1.97" ry="1.95" transform="matrix(1, 0, 0, 1, -0.2, 0.45)"/><ellipse class="cls-1" cx="91.28" cy="42.19" rx="1.97" ry="1.95" transform="translate(-0.2 0.45) rotate(-0.28)"/><path class="cls-1" d="M20.05,63.54c5.88-14,15-26.36-11.57-38.84-13.3-6.26,23.76,13,32.26-21.81"/><path class="cls-2" d="M91.28,44.69c3.22,0,3.22-5,0-5s-3.22,5,0,5Z"/><ellipse class="cls-1" cx="24.14" cy="12.86" rx="3.38" ry="3.43" transform="translate(5.74 33.1) rotate(-75.79)"/><ellipse class="cls-1" cx="92.67" cy="43" rx="1.97" ry="1.95" transform="matrix(1, 0, 0, 1, -0.21, 0.45)"/><path class="cls-1" d="M12,80C17.76,69.45-6.19,62.82,2.37,64.31c14.35,2.5,17.62-.76,21.22-2.4,5-2.28,14-13.54,14.59-20.14.43-5.1,53.1,20.56,10.87-6.57C36.2,26.94,40.45-3,42,.84c8.66,21.44,14.41,5,32,41.35C75.81,46,96.75,16.1,100.9,45.6c.22,1.54,2.86,4.87,3.76,5.17.23.23-5-.49-7.34,1-2.1,1.37-1.38,5-1.26,5.48C100.64,77,74.69,77,73.92,77c-15.86.15-40-22-62,2.92"/><ellipse class="cls-1" cx="90.69" cy="43.01" rx="1.97" ry="1.95" transform="translate(-0.21 0.44) rotate(-0.28)"/><ellipse class="cls-1" cx="11.83" cy="58.42" rx="2.43" ry="2.39" transform="translate(-9.73 2.85) rotate(-9.76)"/><path class="cls-2" d="M90.6,45.48c3.21,0,3.22-5,0-5s-3.23,5,0,5Z"/><path class="cls-2" d="M11.65,60.8c3.22,0,3.22-5,0-5s-3.22,5,0,5Z"/><path class="cls-2" d="M24.06,15c3.22,0,3.23-5,0-5s-3.22,5,0,5Z"/><path class="cls-2" d="M24.06,15.8c3.22,0,3.23-5,0-5s-3.22,5,0,5Z"/><path class="cls-2" d="M23.68,15c3.21,0,3.22-5,0-5s-3.23,5,0,5Z"/><path class="cls-2" d="M23.48,15.8c3.22,0,3.23-5,0-5s-3.22,5,0,5Z"/><path class="cls-2" d="M25,15c3.22,0,3.23-5,0-5s-3.22,5,0,5Z"/><path class="cls-2" d="M24.26,16.19c3.22,0,3.22-5,0-5s-3.22,5,0,5Z"/><path class="cls-2" d="M23.87,15.22c3.22,0,3.22-5,0-5s-3.22,5,0,5Z"/><path class="cls-2" d="M23.77,14.2c3.22,0,3.23-5,0-5s-3.22,5,0,5Z"/></g></g></svg>