<svg xmlns="http://www.w3.org/2000/svg" viewBox="0 0 144.41 129.38"><defs><style>.cls-1,.cls-2{fill:#fff;}.cls-1{stroke:#231f20;stroke-miterlimit:10;stroke-width:2px;}.cls-3{fill:#231f20;}</style></defs><g id="Layer_2" data-name="Layer 2"><g id="Layer_1-2" data-name="Layer 1"><path class="cls-1" d="M63,13.47C55,19,27.29,27.32,3.36,13.18a.56.56,0,0,0-.71.85c10.15,11.22,42,48.6,34.91,68.25"/><path class="cls-2" d="M13.72,83.09"/><path class="cls-3" d="M13.72,88.09a5,5,0,1,0-5-5,5.09,5.09,0,0,0,5,5Z"/><path class="cls-2" d="M128.37,67.06"/><path class="cls-3" d="M128.37,69.56c3.22,0,3.23-5,0-5s-3.22,5,0,5Z"/><path class="cls-1" d="M143.11,77.52c-1.13-.87-4.31-4.39-4.57-6.26-5.06-35.74-30.5.45-32.73-4.14C84.43,23.12,79.59,41.85,66.92,17c-4.53-8.89-5.07-2.09-5,9.47.14,27.05,23.33,43.22,27,45.48a0,0,0,0,1,0,.08c-2.66-.57-21.39-5-35.18-18.08C41.19,42.09,48.59,67.49,37.5,82.37l.06-.09c-4,5.5-10,9.16-16,11.64a6.15,6.15,0,0,1-.84.34l-.71.27-.09,0C9,98.68-1.19,99.12,1.41,99.69,29,101,4.84,146.81,21.4,120c23-37.27,54.85-1.69,85.73-5.26,0,0,27.46-3,25.53-29.27,0-.62-1-5,1.53-6.64C137.06,76.93,145.05,79.46,143.11,77.52Z"/><path class="cls-2" d="M128.37,67.06"/><path class="cls-3" d="M128.37,69.56c3.22,0,3.23-5,0-5s-3.22,5,0,5Z"/><path class="cls-2" d="M34.25,7.5"/><path class="cls-3" d="M34.25,15c3.93,0,7.69-3.45,7.5-7.5A7.63,7.63,0,0,0,34.25,0c-3.92,0-7.68,3.45-7.5,7.5a7.64,7.64,0,0,0,7.5,7.5Z"/></g></g></svg>